<?xml version="1.0" encoding="utf-8"?>
<!-- Uploaded to: SVG Repo, www.svgrepo.com, Generator: SVG Repo Mixer Tools -->
<svg width="800px" height="800px" viewBox="-3.84 0 50.112 50.112" xmlns="http://www.w3.org/2000/svg">
  <g id="Group_1636" data-name="Group 1636" transform="translate(3151.082 -2189.477)">
    <path id="Path_3547" data-name="Path 3547" d="M-3124.532,2199.1c1.7,5.541-5.229.374-8.179,7.107l-4.56-2,1.127-2.571c7.19-16.413,19.207-9.905,16.834-4.488s-8.189.031-8.189.031" fill="#ffffff" fill-rule="evenodd"/>
    <path id="Path_3548" data-name="Path 3548" d="M-3121.46,2201.216c1.7,5.542-5.229.374-8.179,7.107l-4.56-2,1.126-2.571c7.191-16.413,19.208-9.9,16.835-4.488s-8.189.031-8.189.031" fill="#5db67d" fill-rule="evenodd"/>
    <path id="Path_3549" data-name="Path 3549" d="M-3136.006,2203.719l2.842,1.246c1.767-3.146,4.467-3.49,6.3-3.724.61-.078,1.445-.184,1.579-.39.016-.026.14-.253-.051-1.047a12.333,12.333,0,0,1-2.817-1.914.96.96,0,0,1-.053-1.356.964.964,0,0,1,1.357-.054,10.352,10.352,0,0,0,2.643,1.722c.03.011.061.024.09.038a3.679,3.679,0,0,0,2.1.321,2.7,2.7,0,0,0,1.825-1.793c.671-1.532-.262-3.317-2.17-4.153-3.669-1.608-9.08.68-12.906,9.412Zm3.293,3.452a.948.948,0,0,1-.383-.08l-4.56-2a.95.95,0,0,1-.509-.53.953.953,0,0,1,.015-.734l1.127-2.571c4.979-11.368,12.046-11.886,15.434-10.4,2.911,1.274,4.27,4.148,3.158,6.682a4.522,4.522,0,0,1-3.2,2.9,4.635,4.635,0,0,1-1.685.023,2.517,2.517,0,0,1-.359,1.428c-.618.955-1.751,1.1-2.949,1.253-1.838.233-3.92.5-5.214,3.45a.956.956,0,0,1-.88.575" fill="#6f0911" fill-rule="evenodd"/>
    <path id="Path_3550" data-name="Path 3550" d="M-3115.723,2198.213c3.776,4.4-4.64,2.441-4.64,9.792h-4.978V2205.2c0-17.92,13.618-16.782,13.618-10.867s-7.488,3.315-7.488,3.315" fill="#ffffff" fill-rule="evenodd"/>
    <path id="Path_3551" data-name="Path 3551" d="M-3112.651,2201.285c3.776,4.4-4.64,2.441-4.64,9.792h-4.978v-2.807c0-17.92,13.618-16.782,13.618-10.867s-7.488,3.315-7.488,3.315" fill="#5db67d" fill-rule="evenodd"/>
    <path id="Path_3552" data-name="Path 3552" d="M-3124.381,2207.045h3.1c.354-3.59,2.69-4.99,4.278-5.94.528-.316,1.25-.749,1.289-.99,0-.031.027-.288-.468-.94a12.35,12.35,0,0,1-3.347-.622.96.96,0,0,1-.592-1.221.958.958,0,0,1,1.22-.593,10.444,10.444,0,0,0,3.07.516h.046c.03,0,.06,0,.091,0a3.692,3.692,0,0,0,2.055-.547,2.7,2.7,0,0,0,.952-2.375c0-1.673-1.571-2.934-3.654-2.934a6.7,6.7,0,0,0-5.217,2.906c-1.85,2.447-2.827,6.214-2.827,10.894Zm4.018,1.92h-4.978a.96.96,0,0,1-.96-.96V2205.2c0-5.1,1.112-9.268,3.214-12.051a8.587,8.587,0,0,1,6.75-3.669c3.179,0,5.574,2.087,5.574,4.854a4.522,4.522,0,0,1-1.762,3.941,4.642,4.642,0,0,1-1.534.7,2.506,2.506,0,0,1,.244,1.452c-.183,1.123-1.161,1.709-2.2,2.33-1.589.953-3.39,2.031-3.39,5.253a.96.96,0,0,1-.96.96" fill="#6f0911" fill-rule="evenodd"/>
    <path id="Path_3553" data-name="Path 3553" d="M-3150.107,2223.773a2.352,2.352,0,0,0,3.451,2.237c7.839-4.744,23.878-16.041,12.657-23.312s-14.981,11.984-16.108,21.075" fill="#ffffff" fill-rule="evenodd"/>
    <path id="Path_3554" data-name="Path 3554" d="M-3147.035,2226.845a2.352,2.352,0,0,0,3.452,2.236c7.838-4.743,23.877-16.04,12.656-23.312s-14.981,11.984-16.108,21.076" fill="#f54950" fill-rule="evenodd"/>
    <path id="Path_3555" data-name="Path 3555" d="M-3149.154,2223.891a1.3,1.3,0,0,0,.637,1.211,1.3,1.3,0,0,0,1.364.086c10.135-6.133,15.987-12.148,16.054-16.5.03-1.975-1.089-3.67-3.423-5.181s-4.336-1.841-6.127-1.007C-3144.6,2204.337-3147.7,2212.135-3149.154,2223.891Zm1.42,3.376a3.365,3.365,0,0,1-1.828-.554,3.185,3.185,0,0,1-1.5-3.059h0c.9-7.3,3.354-19.987,9.6-22.9,2.405-1.123,5.09-.739,7.983,1.135s4.339,4.17,4.3,6.823c-.1,6.888-10.682,14.308-16.978,18.117a3.038,3.038,0,0,1-1.576.436" fill="#6f0911" fill-rule="evenodd"/>
    <path id="Path_3556" data-name="Path 3556" d="M-3143.219,2209.909a.961.961,0,0,1-.522-.154l-2.675-1.735a.959.959,0,0,1-.284-1.327.959.959,0,0,1,1.328-.283l2.675,1.733a.959.959,0,0,1,.283,1.328.957.957,0,0,1-.8.438" fill="#6f0911" fill-rule="evenodd"/>
    <path id="Path_3557" data-name="Path 3557" d="M-3138.46,2221.308a.948.948,0,0,1-.52-.155l-3.421-2.216a.959.959,0,0,1-.283-1.327.959.959,0,0,1,1.327-.284l3.42,2.216a.959.959,0,0,1,.284,1.327.959.959,0,0,1-.807.439" fill="#6f0911" fill-rule="evenodd"/>
    <path id="Path_3558" data-name="Path 3558" d="M-3126.836,2235.038a2.972,2.972,0,0,0,5.139,0c5-10.071,14.141-32.313-2.57-32.313s-7.565,22.242-2.569,32.313" fill="#ffffff" fill-rule="evenodd"/>
    <path id="Path_3559" data-name="Path 3559" d="M-3123.764,2238.11a2.972,2.972,0,0,0,5.139,0c5-10.072,14.141-32.313-2.57-32.313s-7.565,22.241-2.569,32.313" fill="#f54950" fill-rule="evenodd"/>
    <path id="Path_3560" data-name="Path 3560" d="M-3125.975,2234.611a1.867,1.867,0,0,0,1.708.946,1.869,1.869,0,0,0,1.71-.946c3.052-6.15,9.712-21.162,5.659-27.7-1.347-2.172-3.757-3.227-7.369-3.227s-6.02,1.055-7.367,3.227C-3135.689,2213.449-3129.027,2228.461-3125.975,2234.611Zm1.708,2.866a3.758,3.758,0,0,1-3.429-2.012h0c-3.968-8-9.968-22.474-5.57-29.565,1.7-2.744,4.73-4.135,9-4.135s7.3,1.391,9,4.135c4.4,7.091-1.6,21.567-5.569,29.565a3.759,3.759,0,0,1-3.431,2.012" fill="#6f0911" fill-rule="evenodd"/>
    <path id="Path_3561" data-name="Path 3561" d="M-3122.283,2216.221h-1.536a.96.96,0,0,1-.96-.96.96.96,0,0,1,.96-.96h1.536a.96.96,0,0,1,.96.96.96.96,0,0,1-.96.96" fill="#6f0911" fill-rule="evenodd"/>
    <path id="Path_3562" data-name="Path 3562" d="M-3127.979,2216.221h-5.691a.96.96,0,0,1-.96-.96.96.96,0,0,1,.96-.96h5.691a.96.96,0,0,1,.96.96.96.96,0,0,1-.96.96" fill="#6f0911" fill-rule="evenodd"/>
    <path id="Path_3563" data-name="Path 3563" d="M-3116.948,2224.747h-6.871a.96.96,0,0,1-.96-.96.96.96,0,0,1,.96-.96h6.871a.96.96,0,0,1,.96.96.96.96,0,0,1-.96.96" fill="#6f0911" fill-rule="evenodd"/>
  </g>
</svg>