<?xml version="1.0" encoding="utf-8"?>
<!-- Uploaded to: SVG Repo, www.svgrepo.com, Generator: SVG Repo Mixer Tools -->
<svg width="800px" height="800px" viewBox="-3.84 0 50.112 50.112" xmlns="http://www.w3.org/2000/svg">
  <g id="Group_1639" data-name="Group 1639" transform="translate(3289.746 -2189.478)">
    <path id="Path_3535" data-name="Path 3535" d="M-3261.523,2194.163c8.952,1.613,9.033,8.418,8.614,12.9s3.4,10.156,2.332,16.4-12.533,17.149-28.1,11.471" fill="#ffffff" fill-rule="evenodd"/>
    <path id="Path_3536" data-name="Path 3536" d="M-3258.451,2197.234c8.952,1.614,9.033,8.419,8.614,12.9s3.4,10.157,2.332,16.4-12.533,17.15-28.1,11.472" fill="#5db67d" fill-rule="evenodd"/>
    <path id="Path_3537" data-name="Path 3537" d="M-3270.05,2237.465a26.132,26.132,0,0,1-8.954-1.632.959.959,0,0,1-.571-1.231.959.959,0,0,1,1.23-.573,22,22,0,0,0,18.889-1.318c4.823-2.8,7.493-6.843,7.932-9.414.565-3.308-.331-6.45-1.2-9.49a19.425,19.425,0,0,1-1.143-6.836c.476-5.083-.082-10.468-7.829-11.864a.959.959,0,0,1-.774-1.114.959.959,0,0,1,1.115-.775c10.527,1.9,9.708,10.64,9.4,13.932a18.132,18.132,0,0,0,1.077,6.131c.882,3.094,1.883,6.6,1.245,10.339-.53,3.1-3.474,7.625-8.862,10.751a22.843,22.843,0,0,1-11.557,3.094" fill="#6f0911" fill-rule="evenodd"/>
    <path id="Path_3538" data-name="Path 3538" d="M-3278,2235.04c3.7,1.247,14.247,1,18.439-7.825s-2.391-15.053-.247-22.008c1.905-6.181.2-11.552-4-11.152a3.655,3.655,0,0,1-2.823-.949c-3.188-2.886-7.572.437-9.478,6.619-2.144,6.954-10.971,8-12.495,17.72s6.9,16.349,10.6,17.595" fill="#ffffff" fill-rule="evenodd"/>
    <path id="Path_3539" data-name="Path 3539" d="M-3274.932,2238.112c3.7,1.247,14.248,1,18.439-7.825s-2.39-15.053-.246-22.008c1.905-6.181.2-11.552-4-11.152a3.657,3.657,0,0,1-2.823-.949c-3.187-2.885-7.571.437-9.477,6.619-2.144,6.954-10.971,8-12.5,17.72s6.9,16.349,10.6,17.595" fill="#f46148" fill-rule="evenodd"/>
    <path id="Path_3540" data-name="Path 3540" d="M-3269.187,2193.014a2.873,2.873,0,0,0-.749.1c-2.08.572-4.143,3.276-5.258,6.888-1.019,3.311-3.44,5.4-5.78,7.41-2.892,2.489-5.881,5.064-6.684,10.178-1.481,9.441,6.9,15.507,9.96,16.535s13.209,1.212,17.267-7.327c2.207-4.645,1.215-8.567.255-12.359-.772-3.056-1.571-6.216-.553-9.519,1.129-3.662.946-7.15-.467-8.886a2.735,2.735,0,0,0-2.523-1.028,4.607,4.607,0,0,1-3.558-1.193A2.808,2.808,0,0,0-3269.187,2193.014ZM-3274,2236.56a13.9,13.9,0,0,1-4.314-.61c-4.548-1.53-12.793-8.794-11.246-18.653.912-5.81,4.321-8.746,7.329-11.335,2.231-1.923,4.34-3.738,5.2-6.52,1.322-4.29,3.845-7.422,6.584-8.174a4.635,4.635,0,0,1,4.456,1.127,2.7,2.7,0,0,0,2.086.705,4.611,4.611,0,0,1,4.194,1.728c1.835,2.253,2.147,6.339.813,10.662-.859,2.789-.159,5.555.581,8.483.995,3.93,2.121,8.384-.384,13.655-3.215,6.766-10.132,8.932-15.3,8.932" fill="#6f0911" fill-rule="evenodd"/>
    <path id="Path_3541" data-name="Path 3541" d="M-3264.531,2194.89a.927.927,0,0,1-.273-.041.959.959,0,0,1-.648-1.192c.512-1.726,2.954-3.741,3.231-3.966a.961.961,0,0,1,1.35.142.962.962,0,0,1-.141,1.35,9.369,9.369,0,0,0-2.6,3.02.957.957,0,0,1-.919.687" fill="#6f0911" fill-rule="evenodd"/>
    <path id="Path_3542" data-name="Path 3542" d="M-3266.8,2217.466a.976.976,0,0,1-.177-.017.961.961,0,0,1-.768-1.12,57.36,57.36,0,0,0,.59-11.257,1.214,1.214,0,0,0-.652-1.229,1.312,1.312,0,0,0-1.358.59.959.959,0,0,1-1.351.132.958.958,0,0,1-.132-1.35,3.149,3.149,0,0,1,3.478-1.183,3.073,3.073,0,0,1,1.935,3.018,58.844,58.844,0,0,1-.623,11.632.96.96,0,0,1-.942.784" fill="#6f0911" fill-rule="evenodd"/>
    <path id="Path_3543" data-name="Path 3543" d="M-3274,2226.914a5.889,5.889,0,0,1-1.968-.334c-2.754-.975-5.034-4.235-3.531-9.093a28.072,28.072,0,0,1,3.791-7.677.96.96,0,0,1,1.332-.257.958.958,0,0,1,.257,1.333,26.263,26.263,0,0,0-3.545,7.168c-1.135,3.668.355,6.015,2.335,6.716s4.807-.21,6.275-3.885a.962.962,0,0,1,1.248-.535.959.959,0,0,1,.535,1.247c-1.516,3.8-4.254,5.317-6.729,5.317" fill="#6f0911" fill-rule="evenodd"/>
    <path id="Path_3544" data-name="Path 3544" d="M-3270.127,2211.281a.98.98,0,0,1-.321-.055.961.961,0,0,1-.585-1.226l.258-.726a.96.96,0,0,1,1.225-.584.961.961,0,0,1,.586,1.226l-.258.726a.96.96,0,0,1-.905.639" fill="#6f0911" fill-rule="evenodd"/>
    <path id="Path_3545" data-name="Path 3545" d="M-3271.668,2215.639a.964.964,0,0,1-.32-.055.959.959,0,0,1-.586-1.225l.257-.726a.961.961,0,0,1,1.225-.586.961.961,0,0,1,.585,1.225l-.257.726a.959.959,0,0,1-.9.641" fill="#6f0911" fill-rule="evenodd"/>
    <path id="Path_3546" data-name="Path 3546" d="M-3275.082,2219.375a.956.956,0,0,1-.32-.056.96.96,0,0,1-.585-1.224l.257-.727a.959.959,0,0,1,1.224-.585.959.959,0,0,1,.586,1.224l-.256.727a.962.962,0,0,1-.906.641" fill="#6f0911" fill-rule="evenodd"/>
  </g>
</svg>