<!DOCTYPE svg PUBLIC "-//W3C//DTD SVG 1.1//EN" "http://www.w3.org/Graphics/SVG/1.1/DTD/svg11.dtd">

<!-- Uploaded to: SVG Repo, www.svgrepo.com, Transformed by: SVG Repo Mixer Tools -->
<svg fill="#C1DF1F" width="16px" height="16px" viewBox="0 -16 544 544" xmlns="http://www.w3.org/2000/svg">

<g id="SVGRepo_bgCarrier" stroke-width="0"/>

<g id="SVGRepo_tracerCarrier" stroke-linecap="round" stroke-linejoin="round"/>

<g id="SVGRepo_iconCarrier">

<path d="M168 0c39.77 0 72 32.24 72 72 0 39.77-32.23 72-72 72-39.76 0-72-32.23-72-72 0-39.76 32.24-72 72-72zm120 304h176c8.84 0 16 7.16 16 16v176c0 8.84-7.16 16-16 16H288c-8.84 0-16-7.16-16-16V320c0-8.84 7.16-16 16-16zm124.69-68.69l-104-104c-6.25-6.24-6.25-16.38 0-22.62l104-104c6.24-6.25 16.38-6.25 22.62 0l104 104c6.25 6.24 6.25 16.38 0 22.62l-104 104c-6.24 6.25-16.38 6.25-22.62 0zM72 336c39.77 0 72 32.24 72 72s-32.23 72-72 72c-39.76 0-72-32.24-72-72s32.24-72 72-72zm96-160c39.77 0 72 32.24 72 72 0 39.77-32.23 72-72 72-39.76 0-72-32.23-72-72 0-39.76 32.24-72 72-72z"/>

</g>

</svg>