<svg width="21" height="21" viewBox="0 0 21 21" fill="none" xmlns="http://www.w3.org/2000/svg">
<g clip-path="url(#clip0_16_123)">
<path d="M20.5099 10.5C20.5099 4.97145 16.0283 0.48999 10.4998 0.48999C4.97173 0.48999 0.489746 4.97145 0.489746 10.5C0.489746 16.0285 4.97173 20.5101 10.4998 20.5101C16.0283 20.5101 20.5099 16.0285 20.5099 10.5Z" fill="#FEE050"/>
<path d="M16.3992 14.8893L15.1801 13.4486C14.5833 14.394 13.7084 15.1456 12.6699 15.589L13.8809 17.0202C14.4694 17.7155 15.51 17.8023 16.2055 17.2139C16.9007 16.6253 16.9876 15.5846 16.3992 14.8893Z" fill="#FB7598"/>
<path d="M15.088 15.6191L14.2048 14.6068C14.1028 14.6989 13.9973 14.7872 13.8887 14.8716L14.7773 15.8902C14.818 15.9369 14.8752 15.9608 14.9327 15.9608C14.9807 15.9608 15.0291 15.9441 15.0681 15.91C15.154 15.8352 15.1629 15.705 15.088 15.6191Z" fill="#BA5771"/>
<path d="M16.8546 7.56547C15.7368 7.56547 14.8275 8.47483 14.8275 9.59257C14.8275 9.86313 15.0468 10.0825 15.3174 10.0825C15.588 10.0825 15.8073 9.86313 15.8073 9.59257C15.8073 9.01511 16.2771 8.54531 16.8546 8.54531C17.432 8.54531 17.9018 9.01511 17.9018 9.59257C17.9018 9.86313 18.1211 10.0825 18.3917 10.0825C18.6624 10.0825 18.8816 9.86313 18.8816 9.59257C18.8816 8.47476 17.9723 7.56547 16.8546 7.56547ZM5.19263 9.59257C5.19263 9.86313 5.41198 10.0825 5.68255 10.0825C5.95312 10.0825 6.17247 9.86313 6.17247 9.59257C6.17247 8.47483 5.26311 7.56547 4.14538 7.56547C3.02764 7.56547 2.11828 8.47483 2.11828 9.59257C2.11828 9.86313 2.33764 10.0825 2.6082 10.0825C2.87877 10.0825 3.09812 9.86313 3.09812 9.59257C3.09812 9.01511 3.56792 8.54531 4.14538 8.54531C4.72283 8.54531 5.19263 9.01511 5.19263 9.59257ZM10.5 0.000259399C4.71022 0.000259399 0 4.71055 0 10.5002C0 16.2899 4.71022 21.0002 10.5 21.0002C16.2897 21.0002 21 16.2899 21 10.5002C21 4.71055 16.2897 0.000259399 10.5 0.000259399ZM10.5 20.0204C5.25051 20.0204 0.97984 15.7497 0.97984 10.5002C0.97984 5.25076 5.25051 0.980099 10.5 0.980099C15.7494 0.980099 20.0202 5.25083 20.0202 10.5002C20.0202 15.7496 15.7494 20.0204 10.5 20.0204ZM15.8198 13.4462C15.9231 13.2596 16.0177 13.0666 16.1021 12.8671C16.2075 12.6179 16.0909 12.3304 15.8418 12.2249C15.5927 12.1196 15.3052 12.2361 15.1997 12.4853C14.3993 14.3777 12.5546 15.6005 10.5 15.6005C8.44015 15.6005 6.59354 14.3733 5.79562 12.4741C5.69078 12.2247 5.40356 12.1075 5.15415 12.2123C4.90475 12.317 4.78743 12.6043 4.89228 12.8537C5.84344 15.1176 8.04455 16.5804 10.5 16.5804C11.2175 16.5804 11.9132 16.4544 12.5628 16.2208L13.5071 17.3369C13.9297 17.8363 14.5338 18.0933 15.1419 18.0933C15.6302 18.0933 16.1211 17.9274 16.5222 17.5881C17.4225 16.8259 17.5352 15.4734 16.7734 14.5731L15.8198 13.4462ZM15.8893 16.84C15.4012 17.2528 14.6681 17.1919 14.255 16.7039L13.4885 15.798C13.6743 15.6933 13.8542 15.5787 14.0277 15.4551L14.6975 16.2305C14.7944 16.3427 14.9311 16.4002 15.0685 16.4002C15.182 16.4002 15.296 16.361 15.3886 16.281C15.5933 16.1041 15.6159 15.7947 15.439 15.59L14.7771 14.8238C14.9455 14.6572 15.1045 14.4802 15.2533 14.2936L16.0253 15.2059C16.4383 15.6939 16.3771 16.427 15.8893 16.84Z" fill="#071C2C"/>
</g>
<defs>
<clipPath id="clip0_16_123">
<rect width="21" height="21" fill="white"/>
</clipPath>
</defs>
</svg>
