<?xml version="1.0" encoding="utf-8"?>
<!-- Uploaded to: SVG Repo, www.svgrepo.com, Generator: SVG Repo Mixer Tools -->
<svg width="800px" height="800px" viewBox="-3.84 0 50.112 50.112" xmlns="http://www.w3.org/2000/svg">
  <g id="Group_1634" data-name="Group 1634" transform="translate(3012.415 -2050.811)">
    <path id="Path_3595" data-name="Path 3595" d="M-2992.289,2057.058c-3.165-3.97-9.211-5.287-9.211-5.287s-3.058,5.568-2.035,10.617l3.385,7.451,11.324-5.157-3.463-7.624" fill="#ffffff" fill-rule="evenodd"/>
    <path id="Path_3596" data-name="Path 3596" d="M-2989.217,2060.13c-3.166-3.97-9.211-5.287-9.211-5.287s-3.058,5.569-2.036,10.618l3.386,7.45,11.324-5.157-3.463-7.624" fill="#5db67d" fill-rule="evenodd"/>
    <path id="Path_3597" data-name="Path 3597" d="M-3002.614,2062.093l2.939,6.475,9.579-4.363-3.016-6.639c-2.31-2.821-6.26-4.2-7.874-4.668C-3001.706,2054.451-3003.306,2058.457-3002.614,2062.093Zm2.464,8.706a.949.949,0,0,1-.337-.061.962.962,0,0,1-.537-.5l-3.385-7.451a1.044,1.044,0,0,1-.068-.206c-1.079-5.333,2-11.03,2.136-11.27a.956.956,0,0,1,1.046-.476c.26.057,6.416,1.438,9.757,5.626a.971.971,0,0,1,.122.2l3.464,7.623a.959.959,0,0,1-.476,1.271l-11.325,5.158a.961.961,0,0,1-.4.086" fill="#6f0911" fill-rule="evenodd"/>
    <path id="Path_3598" data-name="Path 3598" d="M-2990.371,2079.173s-8.441-15.3,1.177-25.891c8.617,11.432-1.177,25.891-1.177,25.891" fill="#ffffff" fill-rule="evenodd"/>
    <path id="Path_3599" data-name="Path 3599" d="M-2988.182,2078.177s-5.969-16.422-20.267-16.127c2.944,14.015,20.267,16.127,20.267,16.127" fill="#ffffff" fill-rule="evenodd"/>
    <path id="Path_3600" data-name="Path 3600" d="M-2987.3,2082.246s-8.442-15.3,1.176-25.892c8.618,11.432-1.176,25.892-1.176,25.892" fill="#5db67d" fill-rule="evenodd"/>
    <path id="Path_3601" data-name="Path 3601" d="M-2985.11,2081.249s-5.969-16.421-20.267-16.127c2.944,14.015,20.267,16.127,20.267,16.127" fill="#5db67d" fill-rule="evenodd"/>
    <path id="Path_3602" data-name="Path 3602" d="M-2989.266,2054.853c-6.237,7.946-2.711,18.362-1.013,22.279C-2988.238,2073.383-2983.786,2063.324-2989.266,2054.853Zm-1.1,25.28h-.044a.957.957,0,0,1-.8-.5c-.087-.159-8.657-16.023,1.307-27a.936.936,0,0,1,.755-.313.958.958,0,0,1,.723.381c8.926,11.842-1.047,26.858-1.15,27.008a.957.957,0,0,1-.794.421" fill="#6f0911" fill-rule="evenodd"/>
    <path id="Path_3603" data-name="Path 3603" d="M-3007.219,2063.028c2.777,9.721,13.274,12.962,17.438,13.88C-2991.618,2073.055-2997.154,2063.544-3007.219,2063.028Zm19.037,16.109a.92.92,0,0,1-.117-.007c-.179-.022-18.04-2.363-21.09-16.883a.965.965,0,0,1,.188-.794.964.964,0,0,1,.733-.362c.132,0,.265,0,.4,0,14.529,0,20.73,16.593,20.791,16.762a.958.958,0,0,1-.15.925.961.961,0,0,1-.752.363" fill="#6f0911" fill-rule="evenodd"/>
    <path id="Path_3604" data-name="Path 3604" d="M-2981.679,2096.673l.96-.437a13.1,13.1,0,0,0,6.487-17.338l-3.254-7.161a13.069,13.069,0,0,0-17.316-6.5l-.96.437a13.1,13.1,0,0,0-6.487,17.338l3.254,7.161a13.071,13.071,0,0,0,17.316,6.5" fill="#ffffff" fill-rule="evenodd"/>
    <path id="Path_3605" data-name="Path 3605" d="M-2978.608,2099.745l.96-.437a13.1,13.1,0,0,0,6.486-17.338l-3.253-7.161a13.069,13.069,0,0,0-17.315-6.5l-.961.438a13.1,13.1,0,0,0-6.486,17.338l3.254,7.161a13.07,13.07,0,0,0,17.315,6.5" fill="#f4a73e" fill-rule="evenodd"/>
    <path id="Path_3606" data-name="Path 3606" d="M-2981.679,2096.673h0Zm-7.716-31.656a12.055,12.055,0,0,0-5.009,1.094l-.96.437a12.151,12.151,0,0,0-6.011,16.067l3.253,7.162a12.049,12.049,0,0,0,6.779,6.339,12.02,12.02,0,0,0,9.265-.317l.96-.437a12.151,12.151,0,0,0,6.012-16.067l-3.253-7.162a12.054,12.054,0,0,0-6.779-6.338,12.116,12.116,0,0,0-4.257-.779Zm2.31,33.8a14.035,14.035,0,0,1-4.932-.9,13.958,13.958,0,0,1-7.852-7.342l-3.253-7.162a14.074,14.074,0,0,1,6.962-18.609l.96-.437a13.922,13.922,0,0,1,10.737-.366,13.952,13.952,0,0,1,7.851,7.342l3.253,7.16a14.074,14.074,0,0,1-6.963,18.609l-.959.438h0a13.983,13.983,0,0,1-5.8,1.268" fill="#6f0911" fill-rule="evenodd"/>
    <path id="Path_3607" data-name="Path 3607" d="M-2980.641,2088.318a.962.962,0,0,1-.875-.562.962.962,0,0,1,.476-1.272l.777-.354a.962.962,0,0,1,1.272.476.96.96,0,0,1-.476,1.271l-.777.354a.956.956,0,0,1-.4.087" fill="#6f0911" fill-rule="evenodd"/>
    <path id="Path_3608" data-name="Path 3608" d="M-2989.19,2092.211a.96.96,0,0,1-.874-.563.96.96,0,0,1,.475-1.271l.777-.355a.961.961,0,0,1,1.272.477.961.961,0,0,1-.475,1.272l-.777.354a.993.993,0,0,1-.4.086" fill="#6f0911" fill-rule="evenodd"/>
    <path id="Path_3609" data-name="Path 3609" d="M-2979.9,2078.589a.96.96,0,0,1-.875-.562.962.962,0,0,1,.475-1.272l.778-.354a.96.96,0,0,1,1.271.476.959.959,0,0,1-.475,1.271l-.777.354a.954.954,0,0,1-.4.087" fill="#6f0911" fill-rule="evenodd"/>
    <path id="Path_3610" data-name="Path 3610" d="M-2988.452,2082.482a.963.963,0,0,1-.875-.562.962.962,0,0,1,.476-1.273l.777-.353a.961.961,0,0,1,1.272.476.96.96,0,0,1-.476,1.272l-.776.354a.974.974,0,0,1-.4.086" fill="#6f0911" fill-rule="evenodd"/>
    <path id="Path_3611" data-name="Path 3611" d="M-2997,2086.374a.961.961,0,0,1-.875-.563.959.959,0,0,1,.477-1.27l.777-.354a.959.959,0,0,1,1.272.477.96.96,0,0,1-.477,1.27l-.778.354a.948.948,0,0,1-.4.086" fill="#6f0911" fill-rule="evenodd"/>
    <path id="Path_3612" data-name="Path 3612" d="M-2987.713,2072.753a.962.962,0,0,1-.875-.563.961.961,0,0,1,.477-1.272l.777-.353a.958.958,0,0,1,1.271.476.958.958,0,0,1-.477,1.271l-.776.354a.955.955,0,0,1-.4.087" fill="#6f0911" fill-rule="evenodd"/>
    <path id="Path_3613" data-name="Path 3613" d="M-2996.261,2076.645a.959.959,0,0,1-.875-.563.958.958,0,0,1,.476-1.27l.777-.354a.959.959,0,0,1,1.272.476.959.959,0,0,1-.477,1.271l-.777.354a.951.951,0,0,1-.4.086" fill="#6f0911" fill-rule="evenodd"/>
    <path id="Path_3614" data-name="Path 3614" d="M-3011.454,2074.987a.961.961,0,0,1-.885-.588.958.958,0,0,1,.508-1.256,10.264,10.264,0,0,1,3.459-.678.95.95,0,0,1,.983.937.96.96,0,0,1-.935.983,8.441,8.441,0,0,0-2.759.527.976.976,0,0,1-.371.075" fill="#6f0911" fill-rule="evenodd"/>
    <path id="Path_3615" data-name="Path 3615" d="M-3003.185,2076.071a.96.96,0,0,1-.6-.211,6.614,6.614,0,0,0-1.852-1.05.961.961,0,0,1-.569-1.233.959.959,0,0,1,1.233-.569,8.54,8.54,0,0,1,2.388,1.354.959.959,0,0,1,.15,1.349.954.954,0,0,1-.75.36" fill="#6f0911" fill-rule="evenodd"/>
    <path id="Path_3616" data-name="Path 3616" d="M-2979.01,2060.007a.961.961,0,0,1-.809-.44.961.961,0,0,1,.289-1.327c.168-.107.314-.2.437-.266a.961.961,0,0,1,1.31.358.961.961,0,0,1-.358,1.31c-.1.056-.216.128-.352.214a.96.96,0,0,1-.517.152" fill="#6f0911" fill-rule="evenodd"/>
    <path id="Path_3617" data-name="Path 3617" d="M-2983.008,2066.453c-.019,0-.038,0-.059,0a.959.959,0,0,1-.9-1.015,8.607,8.607,0,0,1,2-5.034.959.959,0,0,1,1.35-.133.96.96,0,0,1,.134,1.351,6.71,6.71,0,0,0-1.566,3.931.96.96,0,0,1-.958.9" fill="#6f0911" fill-rule="evenodd"/>
  </g>
</svg>